<svg xmlns="http://www.w3.org/2000/svg" viewBox="0 0 20 25"><defs><style>.a{fill:#55748a;}</style></defs><polygon class="a" points="13.33 0 13.33 6.67 20 6.67 13.33 0"/><path class="a" d="M9.62,11.73s0-.08-.21-.08a.15.15,0,0,0-.16.11,2.39,2.39,0,0,0,.19,1.53C9.66,12.59,9.79,12,9.62,11.73Z"/><path class="a" d="M9.53,15c0,.13-.1.26-.16.39l-.28.7c-.13.34-.26.65-.38.95l.55-.17,1.48-.4a7,7,0,0,1-.53-.56A8.28,8.28,0,0,1,9.53,15Z"/><path class="a" d="M6,19.56a.31.31,0,0,0,.21,0c.19-.07.51-.31,1-1.05A2.65,2.65,0,0,0,6,19.56Z"/><path class="a" d="M13.33,7.56h-.89V0H0V25H20V7.56Zm.73,10.35a3.24,3.24,0,0,1-2.66-.84c-.69.16-1.39.35-2,.51A10.46,10.46,0,0,0,8.29,18,4.37,4.37,0,0,1,6.5,20.2a1.33,1.33,0,0,1-.38.07,1.06,1.06,0,0,1-.45-.11.62.62,0,0,1-.33-.63c.06-.61.9-1.44,2.44-2.1.2-.43.42-.94.66-1.55l.29-.71c.11-.27.23-.59.36-.92a3.62,3.62,0,0,1-.47-2.79A.84.84,0,0,1,9.41,11a.91.91,0,0,1,.8.39c.37.56.14,1.54-.35,2.87a7.52,7.52,0,0,0,.88,1.28,6.34,6.34,0,0,0,.82.82c1.35-.3,2.29-.37,2.78,0a.87.87,0,0,1,.33.73A.89.89,0,0,1,14.06,17.91Z"/><path class="a" d="M13.91,16.87a2.6,2.6,0,0,0-1.56,0,2.15,2.15,0,0,0,1.48.38c.08,0,.13-.07.14-.22A.18.18,0,0,0,13.91,16.87Z"/></svg>