<?xml version="1.0" encoding="UTF-8"?>
<svg width="1480px" height="500px" viewBox="0 0 1480 500" version="1.1" xmlns="http://www.w3.org/2000/svg" xmlns:xlink="http://www.w3.org/1999/xlink">
    <!-- Generator: Sketch 60.1 (88133) - https://sketch.com -->
    <title>illustration_hero_batched-reports</title>
    <desc>Created with Sketch.</desc>
    <g id="illustration_hero_batched-reports" stroke="none" stroke-width="1" fill="none" fill-rule="evenodd">
        <g id="Group" opacity="0.5" transform="translate(0.000000, -39.000000)">
            <rect id="Rectangle" fill="#293241" x="1300" y="120" width="80" height="100"></rect>
            <rect id="Rectangle" fill="#303C4D" x="500" y="120" width="80" height="100"></rect>
            <rect id="Rectangle" fill="#374859" x="900" y="120" width="80" height="100"></rect>
            <rect id="Rectangle" fill="#293241" x="100" y="120" width="80" height="100"></rect>
            <rect id="Rectangle" fill="#293241" x="1100" y="120" width="80" height="100"></rect>
            <rect id="Rectangle" fill="#293241" x="300" y="120" width="80" height="100"></rect>
            <rect id="Rectangle" fill="#303C4D" x="700" y="120" width="80" height="100"></rect>
            <rect id="Rectangle" fill="#293241" x="1400" y="120" width="80" height="100"></rect>
            <rect id="Rectangle" fill="#374859" x="600" y="120" width="80" height="100"></rect>
            <rect id="Rectangle" fill="#303C4D" x="1000" y="120" width="80" height="100"></rect>
            <rect id="Rectangle" fill="#303C4D" x="200" y="120" width="80" height="100"></rect>
            <rect id="Rectangle" fill="#303C4D" x="1200" y="120" width="80" height="100"></rect>
            <rect id="Rectangle" fill="#303C4D" x="400" y="120" width="80" height="100"></rect>
            <rect id="Rectangle" fill="#374859" x="800" y="120" width="80" height="100"></rect>
            <rect id="Rectangle" fill="#293241" x="2.13162821e-14" y="120" width="80" height="100"></rect>
            <rect id="Rectangle" fill="#303C4D" x="1300" y="238" width="80" height="100"></rect>
            <rect id="Rectangle" fill="#465E71" x="500" y="238" width="80" height="100"></rect>
            <rect id="Rectangle" fill="#303C4D" x="900" y="238" width="80" height="100"></rect>
            <rect id="Rectangle" fill="#293241" x="100" y="238" width="80" height="100"></rect>
            <g id="Group-11" transform="translate(300.000000, 358.000000)">
                <rect id="Rectangle" x="0" y="0" width="80" height="100"></rect>
                <g id="Group-10" transform="translate(24.000000, 12.000000)" fill="#000000">
                    <circle id="Oval" opacity="0.1" cx="16" cy="16" r="16"></circle>
                    <path d="M27.3137085,4.6862915 C30.209139,7.581722 32,11.581722 32,16 C32,16.1848511 31.9968653,16.3689701 31.9906461,16.5523067 L15.4482759,16.5517241 Z" id="Combined-Shape" opacity="0.15"></path>
                    <path d="M31.9906203,16.5530663 C31.841834,20.9331042 29.9325374,24.8665169 26.9480885,27.6679463 L15.4482759,16.5527277 Z" id="Combined-Shape" opacity="0.1"></path>
                    <path d="M15.4482759,16.5527277 L26.9478288,27.6681901 C24.0857902,30.3545968 20.2350474,32 16,32 C11.6778155,32 7.75591253,30.2861911 4.87677079,27.5010529 L15.4482759,16.5527277 Z" id="Combined-Shape" opacity="0.05"></path>
                </g>
                <rect id="Rectangle" fill="#000000" opacity="0.1" x="12" y="52" width="56" height="4"></rect>
                <rect id="Rectangle" fill="#000000" opacity="0.1" x="12" y="60" width="56" height="4"></rect>
                <rect id="Rectangle" fill="#000000" opacity="0.1" x="12" y="68" width="56" height="4"></rect>
                <rect id="Rectangle" fill="#000000" opacity="0.1" x="12" y="76" width="56" height="4"></rect>
                <rect id="Rectangle" fill="#000000" opacity="0.1" x="12" y="84" width="40" height="4"></rect>
            </g>
            <rect id="Rectangle" fill="#303C4D" x="1100" y="238" width="80" height="100"></rect>
            <rect id="Rectangle" fill="#303C4D" x="300" y="238" width="80" height="100"></rect>
            <rect id="Rectangle" fill="#55748A" x="700" y="238" width="80" height="100"></rect>
            <rect id="Rectangle" fill="#303C4D" x="1400" y="238" width="80" height="100"></rect>
            <rect id="Rectangle" fill="#374457" x="600" y="238" width="80" height="100"></rect>
            <rect id="Rectangle" fill="#374859" x="1000" y="238" width="80" height="100"></rect>
            <rect id="Rectangle" fill="#374859" x="200" y="238" width="80" height="100"></rect>
            <rect id="Rectangle" fill="#293241" x="1200" y="238" width="80" height="100"></rect>
            <rect id="Rectangle" fill="#465E71" x="400" y="238" width="80" height="100"></rect>
            <rect id="Rectangle" fill="#465E71" x="800" y="238" width="80" height="100"></rect>
            <rect id="Rectangle" fill="#374859" x="2.13162821e-14" y="238" width="80" height="100"></rect>
            <rect id="Rectangle" fill="#293241" x="1300" y="358" width="80" height="100"></rect>
            <rect id="Rectangle" fill="#303C4D" x="500" y="358" width="80" height="100"></rect>
            <rect id="Rectangle" fill="#303C4D" x="900" y="358" width="80" height="100"></rect>
            <rect id="Rectangle" fill="#303C4D" x="100" y="358" width="80" height="100"></rect>
            <rect id="Rectangle" fill="#303C4D" x="1100" y="358" width="80" height="100"></rect>
            <g id="Group-11" transform="translate(1100.000000, 359.000000)">
                <rect id="Rectangle" x="0" y="0" width="80" height="100"></rect>
                <g id="Group-10" transform="translate(24.000000, 12.000000)" fill="#000000">
                    <circle id="Oval" opacity="0.1" cx="16" cy="16" r="16"></circle>
                    <path d="M27.3137085,4.6862915 C30.209139,7.581722 32,11.581722 32,16 C32,16.1848511 31.9968653,16.3689701 31.9906461,16.5523067 L15.4482759,16.5517241 Z" id="Combined-Shape" opacity="0.15"></path>
                    <path d="M31.9906203,16.5530663 C31.841834,20.9331042 29.9325374,24.8665169 26.9480885,27.6679463 L15.4482759,16.5527277 Z" id="Combined-Shape" opacity="0.1"></path>
                    <path d="M15.4482759,16.5527277 L26.9478288,27.6681901 C24.0857902,30.3545968 20.2350474,32 16,32 C11.6778155,32 7.75591253,30.2861911 4.87677079,27.5010529 L15.4482759,16.5527277 Z" id="Combined-Shape" opacity="0.05"></path>
                </g>
                <rect id="Rectangle" fill="#000000" opacity="0.1" x="12" y="52" width="56" height="4"></rect>
                <rect id="Rectangle" fill="#000000" opacity="0.1" x="12" y="60" width="56" height="4"></rect>
                <rect id="Rectangle" fill="#000000" opacity="0.1" x="12" y="68" width="56" height="4"></rect>
                <rect id="Rectangle" fill="#000000" opacity="0.1" x="12" y="76" width="56" height="4"></rect>
                <rect id="Rectangle" fill="#000000" opacity="0.1" x="12" y="84" width="40" height="4"></rect>
            </g>
            <rect id="Rectangle" fill="#374859" x="300" y="358" width="80" height="100"></rect>
            <rect id="Rectangle" fill="#303C4D" x="700" y="358" width="80" height="100"></rect>
            <rect id="Rectangle" fill="#293241" x="1400" y="358" width="80" height="100"></rect>
            <rect id="Rectangle" fill="#303C4D" x="600" y="358" width="80" height="100"></rect>
            <rect id="Rectangle" fill="#465E71" x="1000" y="358" width="80" height="100"></rect>
            <rect id="Rectangle" fill="#293241" x="200" y="358" width="80" height="100"></rect>
            <rect id="Rectangle" fill="#303C4D" x="1200" y="358" width="80" height="100"></rect>
            <rect id="Rectangle" fill="#465E71" x="400" y="358" width="80" height="100"></rect>
            <rect id="Rectangle" fill="#303C4D" x="800" y="358" width="80" height="100"></rect>
            <rect id="Rectangle" fill="#293241" x="2.13162821e-14" y="358" width="80" height="100"></rect>
            <rect id="Rectangle" fill="#303C4D" x="1300" y="478" width="80" height="100"></rect>
            <rect id="Rectangle" fill="#374859" x="500" y="478" width="80" height="100"></rect>
            <rect id="Rectangle" fill="#303C4D" x="900" y="478" width="80" height="100"></rect>
            <rect id="Rectangle" fill="#293241" x="100" y="478" width="80" height="100"></rect>
            <rect id="Rectangle" fill="#293241" x="1100" y="478" width="80" height="100"></rect>
            <rect id="Rectangle" fill="#293241" x="300" y="478" width="80" height="100"></rect>
            <rect id="Rectangle" fill="#303C4D" x="700" y="478" width="80" height="100"></rect>
            <rect id="Rectangle" fill="#293241" x="1400" y="478" width="80" height="100"></rect>
            <rect id="Rectangle" fill="#374859" x="600" y="478" width="80" height="100"></rect>
            <rect id="Rectangle" fill="#303C4D" x="1000" y="478" width="80" height="100"></rect>
            <rect id="Rectangle" fill="#303C4D" x="200" y="478" width="80" height="100"></rect>
            <rect id="Rectangle" fill="#303C4D" x="1200" y="478" width="80" height="100"></rect>
            <g id="Group-11" transform="translate(1300.000000, 476.000000)">
                <rect id="Rectangle" x="0" y="0" width="80" height="100"></rect>
                <g id="Group-10" transform="translate(24.000000, 12.000000)" fill="#000000">
                    <circle id="Oval" opacity="0.1" cx="16" cy="16" r="16"></circle>
                    <path d="M27.3137085,4.6862915 C30.209139,7.581722 32,11.581722 32,16 C32,16.1848511 31.9968653,16.3689701 31.9906461,16.5523067 L15.4482759,16.5517241 Z" id="Combined-Shape" opacity="0.15"></path>
                    <path d="M31.9906203,16.5530663 C31.841834,20.9331042 29.9325374,24.8665169 26.9480885,27.6679463 L15.4482759,16.5527277 Z" id="Combined-Shape" opacity="0.1"></path>
                    <path d="M15.4482759,16.5527277 L26.9478288,27.6681901 C24.0857902,30.3545968 20.2350474,32 16,32 C11.6778155,32 7.75591253,30.2861911 4.87677079,27.5010529 L15.4482759,16.5527277 Z" id="Combined-Shape" opacity="0.05"></path>
                </g>
                <rect id="Rectangle" fill="#000000" opacity="0.1" x="12" y="52" width="56" height="4"></rect>
                <rect id="Rectangle" fill="#000000" opacity="0.1" x="12" y="60" width="56" height="4"></rect>
            </g>
            <rect id="Rectangle" fill="#303C4D" x="400" y="478" width="80" height="100"></rect>
            <rect id="Rectangle" fill="#374859" x="800" y="478" width="80" height="100"></rect>
            <rect id="Rectangle" fill="#293241" x="2.13162821e-14" y="478" width="80" height="100"></rect>
            <rect id="Rectangle" fill="#374859" x="1300" y="0" width="80" height="100"></rect>
            <rect id="Rectangle" fill="#303C4D" x="500" y="0" width="80" height="100"></rect>
            <rect id="Rectangle" fill="#303C4D" x="900" y="0" width="80" height="100"></rect>
            <rect id="Rectangle" fill="#303C4D" x="100" y="0" width="80" height="100"></rect>
            <g id="Group-11" transform="translate(200.000000, 476.000000)">
                <rect id="Rectangle" x="0" y="0" width="80" height="100"></rect>
                <g id="Group-10" transform="translate(24.000000, 12.000000)" fill="#000000">
                    <circle id="Oval" opacity="0.1" cx="16" cy="16" r="16"></circle>
                    <path d="M27.3137085,4.6862915 C30.209139,7.581722 32,11.581722 32,16 C32,16.1848511 31.9968653,16.3689701 31.9906461,16.5523067 L15.4482759,16.5517241 Z" id="Combined-Shape" opacity="0.15"></path>
                    <path d="M31.9906203,16.5530663 C31.841834,20.9331042 29.9325374,24.8665169 26.9480885,27.6679463 L15.4482759,16.5527277 Z" id="Combined-Shape" opacity="0.1"></path>
                    <path d="M15.4482759,16.5527277 L26.9478288,27.6681901 C24.0857902,30.3545968 20.2350474,32 16,32 C11.6778155,32 7.75591253,30.2861911 4.87677079,27.5010529 L15.4482759,16.5527277 Z" id="Combined-Shape" opacity="0.05"></path>
                </g>
                <rect id="Rectangle" fill="#000000" opacity="0.1" x="12" y="52" width="56" height="4"></rect>
                <rect id="Rectangle" fill="#000000" opacity="0.1" x="12" y="60" width="56" height="4"></rect>
            </g>
            <rect id="Rectangle" fill="#374859" x="1100" y="0" width="80" height="100"></rect>
            <rect id="Rectangle" fill="#303C4D" x="300" y="0" width="80" height="100"></rect>
            <rect id="Rectangle" fill="#374859" x="700" y="0" width="80" height="100"></rect>
            <rect id="Rectangle" fill="#293241" x="1400" y="0" width="80" height="100"></rect>
            <rect id="Rectangle" fill="#293241" x="600" y="0" width="80" height="100"></rect>
            <rect id="Rectangle" fill="#293241" x="1000" y="0" width="80" height="100"></rect>
            <rect id="Rectangle" fill="#293241" x="200" y="0" width="80" height="100"></rect>
            <rect id="Rectangle" fill="#293241" x="1200" y="0" width="80" height="100"></rect>
            <rect id="Rectangle" fill="#374859" x="400" y="0" width="80" height="100"></rect>
            <rect id="Rectangle" fill="#303C4D" x="800" y="0" width="80" height="100"></rect>
            <rect id="Rectangle" fill="#374859" x="2.13162821e-14" y="0" width="80" height="100"></rect>
        </g>
        <g id="Group-11" opacity="0.5" transform="translate(800.000000, -39.000000)">
            <rect id="Rectangle" x="0" y="0" width="80" height="100"></rect>
            <g id="Group-10" transform="translate(24.000000, 12.000000)" fill="#000000">
                <circle id="Oval" opacity="0.1" cx="16" cy="16" r="16"></circle>
                <path d="M31.9906203,16.5530663 C31.841834,20.9331042 29.9325374,24.8665169 26.9480885,27.6679463 L15.4482759,16.5527277 Z" id="Combined-Shape" opacity="0.1"></path>
                <path d="M15.4482759,16.5527277 L26.9478288,27.6681901 C24.0857902,30.3545968 20.2350474,32 16,32 C11.6778155,32 7.75591253,30.2861911 4.87677079,27.5010529 L15.4482759,16.5527277 Z" id="Combined-Shape" opacity="0.05"></path>
            </g>
            <rect id="Rectangle" fill="#000000" opacity="0.1" x="12" y="52" width="56" height="4"></rect>
            <rect id="Rectangle" fill="#000000" opacity="0.1" x="12" y="60" width="56" height="4"></rect>
            <rect id="Rectangle" fill="#000000" opacity="0.1" x="12" y="68" width="56" height="4"></rect>
            <rect id="Rectangle" fill="#000000" opacity="0.1" x="12" y="76" width="56" height="4"></rect>
            <rect id="Rectangle" fill="#000000" opacity="0.1" x="12" y="84" width="40" height="4"></rect>
        </g>
        <g id="Group-11" opacity="0.5" transform="translate(400.000000, 199.000000)">
            <rect id="Rectangle" x="0" y="0" width="80" height="100"></rect>
            <g id="Group-10" transform="translate(24.000000, 12.000000)" fill="#000000">
                <circle id="Oval" opacity="0.1" cx="16" cy="16" r="16"></circle>
                <path d="M27.3137085,4.6862915 C30.209139,7.581722 32,11.581722 32,16 C32,16.1848511 31.9968653,16.3689701 31.9906461,16.5523067 L15.4482759,16.5517241 Z" id="Combined-Shape" opacity="0.15"></path>
                <path d="M31.9906203,16.5530663 C31.841834,20.9331042 29.9325374,24.8665169 26.9480885,27.6679463 L15.4482759,16.5527277 Z" id="Combined-Shape" opacity="0.1"></path>
                <path d="M15.4482759,16.5527277 L26.9478288,27.6681901 C24.0857902,30.3545968 20.2350474,32 16,32 C11.6778155,32 7.75591253,30.2861911 4.87677079,27.5010529 L15.4482759,16.5527277 Z" id="Combined-Shape" opacity="0.05"></path>
            </g>
            <rect id="Rectangle" fill="#000000" opacity="0.1" x="12" y="52" width="56" height="4"></rect>
            <rect id="Rectangle" fill="#000000" opacity="0.1" x="12" y="60" width="56" height="4"></rect>
            <rect id="Rectangle" fill="#000000" opacity="0.1" x="12" y="68" width="56" height="4"></rect>
            <rect id="Rectangle" fill="#000000" opacity="0.1" x="12" y="76" width="56" height="4"></rect>
            <rect id="Rectangle" fill="#000000" opacity="0.1" x="12" y="84" width="40" height="4"></rect>
        </g>
        <g id="Group-4" transform="translate(503.060664, 304.959557)">
            <rect id="Rectangle" fill="#ABC6D5" transform="translate(60.109575, 61.080279) rotate(-40.000000) translate(-60.109575, -61.080279) " x="22.1095747" y="13.5802787" width="76" height="95"></rect>
            <g id="Group-11" opacity="0.5" transform="translate(59.778639, 60.598932) rotate(-40.000000) translate(-59.778639, -60.598932) translate(31.778639, 23.098932)">
                <g id="Group-10" transform="translate(12.400000, 0.700000)">
                    <circle id="Oval" fill="#9DBCCE" cx="15.6" cy="15.6" r="15.6"></circle>
                    <path d="M26.6308658,4.56913421 C29.4539105,7.39217895 31.2,11.292179 31.2,15.6 C31.2,15.7799261 31.1969539,15.9591408 31.1909105,16.1375953 L15.062069,16.137931 Z" id="Combined-Shape" fill="#73A0BA"></path>
                    <path d="M31.1908523,16.1393112 C31.0457542,20.4102056 29.183871,24.2455628 26.2735968,26.9769886 L15.062069,16.1389095 Z" id="Combined-Shape" fill="#81A9C1"></path>
                    <path d="M15.062069,16.1389095 L26.2735968,26.9769886 C23.4831645,29.5959373 19.7289067,31.2 15.6,31.2 C11.386081,31.2 7.56239747,29.5292035 4.75527301,26.8139343 L15.062069,16.1389095 Z" id="Combined-Shape" fill="#8FB3C7"></path>
                </g>
                <rect id="Rectangle" fill="#9DBCCE" x="0.7" y="39.7" width="54.6" height="3.9"></rect>
                <rect id="Rectangle" fill="#9DBCCE" x="0.7" y="47.5" width="54.6" height="3.9"></rect>
                <rect id="Rectangle" fill="#9DBCCE" x="0.7" y="55.3" width="54.6" height="3.9"></rect>
                <rect id="Rectangle" fill="#9DBCCE" x="0.7" y="63.1" width="54.6" height="3.9"></rect>
                <rect id="Rectangle" fill="#9DBCCE" x="0.7" y="70.9" width="39" height="3.9"></rect>
            </g>
        </g>
        <g id="Group-4" transform="translate(903.000000, 407.000000) rotate(70.000000) translate(-903.000000, -407.000000) translate(843.000000, 346.000000)">
            <rect id="Rectangle" fill="#ABC6D5" transform="translate(60.109575, 61.080279) rotate(-40.000000) translate(-60.109575, -61.080279) " x="22.1095747" y="13.5802787" width="76" height="95"></rect>
            <g id="Group-11" opacity="0.5" transform="translate(59.778639, 60.598932) rotate(-40.000000) translate(-59.778639, -60.598932) translate(31.778639, 23.098932)">
                <g id="Group-10" transform="translate(12.400000, 0.700000)">
                    <circle id="Oval" fill="#9DBCCE" cx="15.6" cy="15.6" r="15.6"></circle>
                    <path d="M26.6308658,4.56913421 C29.4539105,7.39217895 31.2,11.292179 31.2,15.6 C31.2,15.7799261 31.1969539,15.9591408 31.1909105,16.1375953 L15.062069,16.137931 Z" id="Combined-Shape" fill="#73A0BA"></path>
                    <path d="M31.1908523,16.1393112 C31.0457542,20.4102056 29.183871,24.2455628 26.2735968,26.9769886 L15.062069,16.1389095 Z" id="Combined-Shape" fill="#81A9C1"></path>
                    <path d="M15.062069,16.1389095 L26.2735968,26.9769886 C23.4831645,29.5959373 19.7289067,31.2 15.6,31.2 C11.386081,31.2 7.56239747,29.5292035 4.75527301,26.8139343 L15.062069,16.1389095 Z" id="Combined-Shape" fill="#8FB3C7"></path>
                </g>
                <rect id="Rectangle" fill="#9DBCCE" x="0.7" y="39.7" width="54.6" height="3.9"></rect>
                <rect id="Rectangle" fill="#9DBCCE" x="0.7" y="47.5" width="54.6" height="3.9"></rect>
                <rect id="Rectangle" fill="#9DBCCE" x="0.7" y="55.3" width="54.6" height="3.9"></rect>
                <rect id="Rectangle" fill="#9DBCCE" x="0.7" y="63.1" width="54.6" height="3.9"></rect>
                <rect id="Rectangle" fill="#9DBCCE" x="0.7" y="70.9" width="39" height="3.9"></rect>
            </g>
        </g>
        <g id="Group-11" opacity="0.99" transform="translate(645.000000, 322.500000) rotate(-20.000000) translate(-645.000000, -322.500000) translate(591.000000, 255.000000)">
            <rect id="Rectangle" fill="#C7D9E3" x="0" y="0" width="108" height="135"></rect>
            <g id="Group-2" opacity="0.75" transform="translate(0.000000, -0.000000)">
                <g id="Group-10" transform="translate(32.400000, 16.200000)">
                    <circle id="Oval" fill="#B9CFDC" cx="21.6" cy="21.6" r="21.6"></circle>
                    <path d="M36.8735065,6.32649353 C40.7823376,10.2353247 43.2,15.6353247 43.2,21.6 C43.2,21.8490336 43.1957856,22.0970829 43.1874242,22.3440804 L20.8551724,22.3448276 Z" id="Combined-Shape" fill="#8FB3C7"></path>
                    <path d="M43.1873871,22.345174 C42.9868951,28.2590106 40.4090862,33.5698398 36.3795161,37.3521061 L20.8551724,22.3461824 Z" id="Combined-Shape" fill="#9DBCCE"></path>
                    <path d="M20.8551724,22.3461824 L36.3794427,37.352175 C32.5157037,40.978754 27.3172517,43.2 21.6,43.2 C15.7646009,43.2 10.4696653,40.886001 6.58274131,37.1255514 L20.8551724,22.3461824 Z" id="Combined-Shape" fill="#ABC6D5"></path>
                </g>
                <rect id="Rectangle" fill="#B9CFDC" x="16.2" y="70.2" width="75.6" height="5.4"></rect>
                <rect id="Rectangle" fill="#B9CFDC" x="16.2" y="81" width="75.6" height="5.4"></rect>
                <rect id="Rectangle" fill="#B9CFDC" x="16.2" y="91.8" width="75.6" height="5.4"></rect>
                <rect id="Rectangle" fill="#B9CFDC" x="16.2" y="102.6" width="75.6" height="5.4"></rect>
                <rect id="Rectangle" fill="#B9CFDC" x="16.2" y="113.4" width="54" height="5.4"></rect>
            </g>
        </g>
        <g id="Group-11" opacity="0.5" transform="translate(100.000000, -39.000000)">
            <rect id="Rectangle" x="0" y="0" width="80" height="100"></rect>
            <g id="Group-10" transform="translate(24.000000, 12.000000)" fill="#000000">
                <circle id="Oval" opacity="0.1" cx="16" cy="16" r="16"></circle>
                <path d="M31.9906203,16.5530663 C31.841834,20.9331042 29.9325374,24.8665169 26.9480885,27.6679463 L15.4482759,16.5527277 Z" id="Combined-Shape" opacity="0.1"></path>
                <path d="M15.4482759,16.5527277 L26.9478288,27.6681901 C24.0857902,30.3545968 20.2350474,32 16,32 C11.6778155,32 7.75591253,30.2861911 4.87677079,27.5010529 L15.4482759,16.5527277 Z" id="Combined-Shape" opacity="0.05"></path>
            </g>
            <rect id="Rectangle" fill="#000000" opacity="0.1" x="12" y="52" width="56" height="4"></rect>
            <rect id="Rectangle" fill="#000000" opacity="0.1" x="12" y="60" width="56" height="4"></rect>
            <rect id="Rectangle" fill="#000000" opacity="0.1" x="12" y="68" width="56" height="4"></rect>
            <rect id="Rectangle" fill="#000000" opacity="0.1" x="12" y="76" width="56" height="4"></rect>
            <rect id="Rectangle" fill="#000000" opacity="0.1" x="12" y="84" width="40" height="4"></rect>
        </g>
        <g id="Group-11" transform="translate(823.000000, 332.500000) rotate(10.000000) translate(-823.000000, -332.500000) translate(761.000000, 255.000000)">
            <rect id="Rectangle" fill="#E3ECF1" x="1.00044417e-11" y="-2.27373675e-13" width="124" height="155"></rect>
            <g id="Group-3" opacity="0.75" transform="translate(0.000000, 0.000000)">
                <g id="Group-10" transform="translate(37.200000, 18.600000)">
                    <circle id="Oval" fill="#D5E2EA" cx="24.8" cy="24.8" r="24.8"></circle>
                    <path d="M42.3362482,7.26375183 C46.8241654,11.7516691 49.6,17.9516691 49.6,24.8 C49.6,25.0860482 49.5951571,25.3709653 49.5855489,25.6546738 L23.9448276,25.6551724 Z" id="Combined-Shape" fill="#ABC6D5"></path>
                    <path d="M49.5855119,25.6557664 C49.3552766,32.4453648 46.39582,38.5426823 41.7696532,42.8852078 L23.9448276,25.656728 Z" id="Combined-Shape" fill="#B9CFDC"></path>
                    <path d="M23.9448276,25.656728 L41.768658,42.886142 C37.3325474,47.0498076 31.3640883,49.6 24.8,49.6 C18.1006328,49.6 12.0216985,46.943611 7.55903222,42.6266682 L23.9448276,25.656728 Z" id="Combined-Shape" fill="#C7D9E3"></path>
                </g>
                <rect id="Rectangle" fill="#D5E2EA" x="18.6" y="80.6" width="86.8" height="6.2"></rect>
                <rect id="Rectangle" fill="#D5E2EA" x="18.6" y="93" width="86.8" height="6.2"></rect>
                <rect id="Rectangle" fill="#D5E2EA" x="18.6" y="105.4" width="86.8" height="6.2"></rect>
                <rect id="Rectangle" fill="#D5E2EA" x="18.6" y="117.8" width="86.8" height="6.2"></rect>
                <rect id="Rectangle" fill="#D5E2EA" x="18.6" y="130.2" width="62" height="6.2"></rect>
            </g>
        </g>
        <g id="Group-11" transform="translate(671.000000, 275.000000)">
            <rect id="Rectangle" fill="#FFFFFF" x="0" y="0" width="140" height="175"></rect>
            <g id="Group-10" transform="translate(42.000000, 21.000000)">
                <circle id="Oval" fill="#C7E3D1" cx="28" cy="28" r="28"></circle>
                <path d="M47.7989899,8.20101013 C52.8659932,13.2680135 56,20.2680135 56,28 C56,28.3230926 55.9945277,28.6449071 55.9836707,28.9653558 L27.0344828,28.9655172 Z" id="Combined-Shape" fill="#73BA8E"></path>
                <path d="M55.9836336,28.9664501 C55.7236174,36.6321893 52.3821707,43.5162906 47.158941,48.4191068 L27.0344828,28.9672735 Z" id="Combined-Shape" fill="#8FC7A4"></path>
                <path d="M27.0344828,28.9672735 L47.1588685,48.4191748 C42.1502838,53.1204799 35.4114159,56 28,56 C20.4361219,56 13.5727466,53.0007905 8.53423842,48.1267357 L27.0344828,28.9672735 Z" id="Combined-Shape" fill="#ABD5BB"></path>
            </g>
            <rect id="Rectangle" fill="#ABC6D5" x="21" y="91" width="98" height="7"></rect>
            <rect id="Rectangle" fill="#ABC6D5" x="21" y="105" width="98" height="7"></rect>
            <rect id="Rectangle" fill="#ABC6D5" x="21" y="119" width="98" height="7"></rect>
            <rect id="Rectangle" fill="#ABC6D5" x="21" y="133" width="98" height="7"></rect>
            <rect id="Rectangle" fill="#ABC6D5" x="21" y="147" width="70" height="7"></rect>
        </g>
    </g>
</svg>