<?xml version="1.0" encoding="UTF-8"?>
<svg width="1480px" height="500px" viewBox="0 0 1480 500" version="1.1" xmlns="http://www.w3.org/2000/svg" xmlns:xlink="http://www.w3.org/1999/xlink">
    <!-- Generator: Sketch 60.1 (88133) - https://sketch.com -->
    <title>illustration_hero_announcements</title>
    <desc>Created with Sketch.</desc>
    <g id="illustration_hero_announcements" stroke="none" stroke-width="1" fill="none" fill-rule="evenodd">
        <g id="Group" opacity="0.25" transform="translate(0.000000, -42.000000)">
            <polygon id="Rectangle" fill="#50687B" points="900 484.090909 940 455 980 484.090909 980 542.272727 900 542.272727"></polygon>
            <polygon id="Rectangle" fill="#50687B" points="600 484.090909 640 455 680 484.090909 680 542.272727 600 542.272727"></polygon>
            <polygon id="Rectangle" fill="#45596D" points="400 484.090909 440 455 480 484.090909 480 542.272727 400 542.272727"></polygon>
            <polygon id="Rectangle" fill="#364557" points="300 484.090909 340 455 380 484.090909 380 542.272727 300 542.272727"></polygon>
            <rect id="Rectangle" fill="#293241" x="314.545455" y="498.636364" width="21.8181818" height="21.8181818"></rect>
            <rect id="Rectangle" fill="#293241" x="343.636364" y="498.636364" width="21.8181818" height="21.8181818"></rect>
            <polygon id="Rectangle" fill="#364557" points="1100 484.090909 1140 455 1180 484.090909 1180 542.272727 1100 542.272727"></polygon>
            <polygon id="Rectangle" fill="#364557" points="0 484.090909 40 455 80 484.090909 80 542.272727 0 542.272727"></polygon>
            <polygon id="Rectangle" fill="#364557" points="1400 484.090909 1440 455 1480 484.090909 1480 542.272727 1400 542.272727"></polygon>
            <rect id="Rectangle" fill="#293241" x="1414.54545" y="498.636364" width="21.8181818" height="21.8181818"></rect>
            <rect id="Rectangle" fill="#293241" x="1443.63636" y="498.636364" width="21.8181818" height="21.8181818"></rect>
            <rect id="Rectangle" fill="#45596D" x="1000" y="352" width="80" height="190"></rect>
            <g id="building" transform="translate(100.000000, 391.000000)">
                <rect id="Rectangle" fill="#2A3241" x="0" y="0" width="80" height="151.111111"></rect>
                <rect id="Rectangle" fill="#364557" x="0" y="0" width="80" height="151.111111"></rect>
                <rect id="Rectangle" fill="#293241" x="17.7777778" y="103.111111" width="17.7777778" height="19.5555556"></rect>
                <rect id="Rectangle" fill="#293241" x="17.7777778" y="74.6666667" width="17.7777778" height="19.5555556"></rect>
                <rect id="Rectangle" fill="#293241" x="17.7777778" y="46.2222222" width="17.7777778" height="19.5555556"></rect>
                <rect id="Rectangle" fill="#293241" x="17.7777778" y="17.7777778" width="17.7777778" height="19.5555556"></rect>
                <rect id="Rectangle" fill="#293241" x="44.4444444" y="103.111111" width="17.7777778" height="19.5555556"></rect>
                <rect id="Rectangle" fill="#293241" x="44.4444444" y="74.6666667" width="17.7777778" height="19.5555556"></rect>
                <rect id="Rectangle" fill="#293241" x="44.4444444" y="46.2222222" width="17.7777778" height="19.5555556"></rect>
                <rect id="Rectangle" fill="#293241" x="44.4444444" y="17.7777778" width="17.7777778" height="19.5555556"></rect>
            </g>
            <rect id="Rectangle" fill="#3D4F62" x="200" y="352" width="80" height="190"></rect>
            <rect id="Rectangle" fill="#364557" x="1300" y="352" width="80" height="190"></rect>
            <g id="building" transform="translate(1200.000000, 391.000000)">
                <rect id="Rectangle" fill="#2A3241" x="0" y="0" width="80" height="151.111111"></rect>
                <rect id="Rectangle" fill="#3D4E62" x="0" y="0" width="80" height="151.111111"></rect>
                <rect id="Rectangle" fill="#293241" x="17.7777778" y="103.111111" width="17.7777778" height="19.5555556"></rect>
                <rect id="Rectangle" fill="#293241" x="17.7777778" y="74.6666667" width="17.7777778" height="19.5555556"></rect>
                <rect id="Rectangle" fill="#293241" x="17.7777778" y="46.2222222" width="17.7777778" height="19.5555556"></rect>
                <rect id="Rectangle" fill="#293241" x="17.7777778" y="17.7777778" width="17.7777778" height="19.5555556"></rect>
                <rect id="Rectangle" fill="#293241" x="44.4444444" y="103.111111" width="17.7777778" height="19.5555556"></rect>
                <rect id="Rectangle" fill="#293241" x="44.4444444" y="74.6666667" width="17.7777778" height="19.5555556"></rect>
                <rect id="Rectangle" fill="#293241" x="44.4444444" y="46.2222222" width="17.7777778" height="19.5555556"></rect>
                <rect id="Rectangle" fill="#293241" x="44.4444444" y="17.7777778" width="17.7777778" height="19.5555556"></rect>
            </g>
            <rect id="Rectangle" fill="#8FB3C7" x="514.545455" y="498.636364" width="21.8181818" height="21.8181818"></rect>
            <rect id="Rectangle" fill="#8FB3C7" x="543.636364" y="498.636364" width="21.8181818" height="21.8181818"></rect>
            <path d="M402.5,254 C411.953905,254 420.403191,258.301287 425.997637,265.053641 C428.040768,264.369869 430.22719,264 432.5,264 C442.029159,264 450.03975,270.501762 452.337609,279.311122 C463.490972,281.143887 472,290.828249 472,302.5 C472,315.478692 461.478692,326 448.5,326 C445.58734,326 442.798443,325.470108 440.224452,324.501467 C434.367897,332.109014 425.246337,337 415,337 C405.848657,337 397.594533,333.098525 391.762187,326.843954 C386.594423,331.303105 379.862158,334 372.5,334 C361.086513,334 351.186914,327.518277 346.281372,318.035002 C343.664497,319.901386 340.460546,321 337,321 C328.163444,321 321,313.836556 321,305 C321,297.169128 326.625693,290.652207 334.056054,289.270262 C334.812778,277.756708 343.063815,268.289454 353.977321,265.701095 C356.880436,261.644059 361.631442,259 367,259 C371.928696,259 376.33689,261.228537 379.271903,264.732935 C384.865675,258.165631 393.19637,254 402.5,254 Z" id="Combined-Shape" fill="#5A7386"></path>
            <path d="M531.5,0 C546.816507,0 559.496085,11.2900387 561.670648,26.0020314 L562,26 C576.359403,26 588,37.6405965 588,52 C588,66.3594035 576.359403,78 562,78 C556.865348,78 552.078335,76.5115838 548.046881,73.942672 C542.18273,80.7214973 533.583327,85 524,85 C517.288106,85 511.058848,82.9013051 505.91371,79.3147982 C501.032986,82.8893673 495.012975,85 488.5,85 C472.2076,85 459,71.7924001 459,55.5 L459.001578,55.5853017 C451.388758,52.591943 446,45.1752774 446,36.5 C446,25.1781626 455.178163,16 466.5,16 C470.082627,16 473.450604,16.9190201 476.381046,18.5341724 C480.69126,13.3214816 487.207743,10 494.5,10 C498.82941,10 502.885375,11.170753 506.368574,13.2129361 C511.868708,5.23196465 521.073359,0 531.5,0 Z" id="Combined-Shape" fill="#4E6478"></path>
            <path d="M1026,220 C1039.4479,220 1050.89582,228.562948 1055.18875,240.533829 C1067.49545,246.401672 1076,258.957664 1076,273.5 C1076,293.658393 1059.65839,310 1039.5,310 C1033.27912,310 1027.42173,308.443724 1022.29592,305.699267 C1015.23624,314.429022 1004.51037,320 992.5,320 C982.602091,320 973.57656,316.216394 966.756005,309.999085 C958.834108,309.898767 952.080359,304.950892 949.325193,297.98528 C949.051615,297.995425 948.776342,298 948.5,298 C934.969024,298 924,287.030976 924,273.5 C924,267.919264 925.865918,262.774337 929.007918,258.655055 C929.002515,258.437503 929,258.219045 929,258 C929,242.536027 941.536027,230 957,230 C964.602615,230 971.497533,233.030008 976.543028,237.948296 C979.989497,233.136216 985.628497,230 992,230 C995.343272,230 998.484861,230.863507 1001.21391,232.379658 C1006.86932,224.861828 1015.86689,220 1026,220 Z" id="Combined-Shape" fill="#5A7386"></path>
            <path d="M1383,248 C1388.34381,248 1393.03496,250.794388 1395.69191,255.001634 C1398.06263,255.023814 1400.3319,255.469658 1402.42815,256.266617 C1405.35472,253.615374 1409.23871,252 1413.5,252 C1421.05545,252 1427.42482,257.078237 1429.38107,264.007678 C1434.72736,264.207465 1439,268.604769 1439,274 C1439,279.522847 1434.52285,284 1429,284 C1428.65051,284 1428.30521,283.982071 1427.96496,283.947084 C1425.26385,292.11002 1417.56976,298 1408.5,298 C1403.93437,298 1399.71733,296.507467 1396.3102,293.983703 C1396.0419,293.994447 1395.7716,294 1395.5,294 C1392.99383,294 1390.59809,293.527218 1388.3971,292.665979 C1385.18162,295.371081 1381.03104,297 1376.5,297 C1367.94957,297 1360.75396,291.199303 1358.63376,283.318486 C1357.50731,283.758826 1356.28182,284 1355,284 C1349.47715,284 1345,279.522847 1345,274 C1345,268.477153 1349.47715,264 1355,264 C1355.05133,264 1355.10258,264.000387 1355.15373,264.001158 C1356.11366,257.770924 1361.49968,253 1368,253 C1369.18638,253 1370.33565,253.158922 1371.42767,253.456638 C1374.17769,250.124288 1378.34077,248 1383,248 Z" id="Combined-Shape" fill="#3D4F62"></path>
            <path d="M1215,95 C1220.02315,95 1224.61378,96.8518154 1228.12646,99.910004 C1230.42729,98.0880663 1233.33658,97 1236.5,97 C1243.62441,97 1249.45984,102.518731 1249.96457,109.514459 C1252.45271,108.536742 1255.16367,108 1258,108 C1270.15026,108 1280,117.849736 1280,130 C1280,142.150264 1270.15026,152 1258,152 C1254.50927,152 1251.20843,151.18701 1248.27649,149.740047 C1245.10447,156.958658 1237.89097,162 1229.5,162 C1222.09947,162 1215.61485,158.078546 1212.01071,152.200217 C1207.67352,155.821613 1202.09115,158 1196,158 C1187.75773,158 1180.44707,154.011319 1175.89296,147.858901 C1173.40193,149.224043 1170.54158,150 1167.5,150 C1157.83502,150 1150,142.164983 1150,132.5 C1150,122.835017 1157.83502,115 1167.5,115 C1170.76118,115 1173.81402,115.892048 1176.42781,117.445448 C1181.00733,111.689573 1188.07279,108 1196,108 C1196.08659,108 1196.17307,108.00044 1196.25945,108.001318 C1199.09541,100.407609 1206.4162,95 1215,95 Z" id="Combined-Shape" fill="#3D4F62"></path>
            <path d="M32,306 C36.0160376,306 39.6371212,307.690999 42.1900779,310.399823 C43.8662168,308.906964 46.077192,308 48.5,308 C50.7941512,308 52.8983698,308.813198 54.5401297,310.167067 C57.0613477,308.783957 59.9415968,308 63,308 C71.1886835,308 78.1002385,313.619927 80.2825384,321.311762 C85.8470309,322.576018 90,327.55302 90,333.5 C90,340.403559 84.4035594,346 77.5,346 C75.5489345,346 73.7022719,345.552998 72.0568366,344.755818 C69.5490275,349.086556 64.8647494,352 59.5,352 C55.3460429,352 51.600062,350.253246 48.9565052,347.454185 C45.7782352,350.282183 41.5897264,352 37,352 C31.2003283,352 26.0412954,349.257099 22.749365,344.997761 L22.5,345 C15.5964406,345 10,339.403559 10,332.5 C10,327.173571 13.3314859,322.625253 18.0244055,320.825097 C18.0080608,320.552672 18,320.277278 18,320 C18,312.268014 24.2680135,306 32,306 Z" id="Combined-Shape" fill="#3D4F62"></path>
            <path d="M237.5,136 C247.463244,136 255.766417,143.45432 257.615674,153.335269 C264.125724,154.760311 269,160.560931 269,167.5 C269,175.508129 262.508129,182 254.5,182 C251.48011,182 248.675842,181.076812 246.354021,179.497262 C242.594337,184.077802 236.888426,187 230.5,187 C227.28451,187 224.241929,186.259685 221.533406,184.940204 C219.516946,187.417974 216.443224,189 213,189 C208.21659,189 204.146298,185.946779 202.631664,181.682876 C199.617348,184.952242 195.297814,187 190.5,187 C183.261956,187 177.112435,182.339482 174.888605,175.855613 C173.416791,176.588314 171.756473,177 170,177 C163.924868,177 159,172.075132 159,166 C159,159.924868 163.924868,155 170,155 C172.337567,155 174.504834,155.729141 176.286773,156.972393 C177.701252,149.583451 184.198583,144 192,144 C195.315224,144 198.394951,145.008281 200.949255,146.734916 C203.596474,143.250002 207.785479,141 212.5,141 C215.884727,141 218.998586,142.159725 221.465891,144.103491 C225.221178,139.164733 231.008197,136 237.5,136 Z" id="Combined-Shape" fill="#85BCD8" opacity="0.2"></path>
        </g>
        <g id="house" transform="translate(900.000000, 413.000000)">
            <polygon id="Rectangle" fill="#465E71" points="0 29.0909091 40 -1.10214868e-13 80 29.0909091 80 87.2727273 0 87.2727273"></polygon>
            <rect id="Rectangle" fill="#374859" x="14.5454545" y="43.6363636" width="21.8181818" height="21.8181818"></rect>
            <rect id="Rectangle" fill="#374859" x="43.6363636" y="43.6363636" width="21.8181818" height="21.8181818"></rect>
        </g>
        <g id="house" transform="translate(500.000000, 413.000000)">
            <polygon id="Rectangle" fill="#648AA2" points="0 29.0909091 40 -1.10214868e-13 80 29.0909091 80 87.2727273 0 87.2727273"></polygon>
            <rect id="Rectangle" fill="#FFFFFF" x="14.5454545" y="43.6363636" width="21.8181818" height="21.8181818"></rect>
            <rect id="Rectangle" fill="#FFFFFF" x="43.6363636" y="43.6363636" width="21.8181818" height="21.8181818"></rect>
        </g>
        <g id="building" transform="translate(800.000000, 296.000000)">
            <rect id="Rectangle" fill="#2A3241" x="0" y="0" width="108" height="204"></rect>
            <rect id="Rectangle" fill="#648AA2" x="0" y="0" width="108" height="204"></rect>
            <rect id="Rectangle" fill="#FFFFFF" x="24" y="139.2" width="24" height="26.4"></rect>
            <rect id="Rectangle" fill="#FFFFFF" x="24" y="100.8" width="24" height="26.4"></rect>
            <rect id="Rectangle" fill="#FFFFFF" x="24" y="62.4" width="24" height="26.4"></rect>
            <rect id="Rectangle" fill="#FFFFFF" x="24" y="24" width="24" height="26.4"></rect>
            <rect id="Rectangle" fill="#FFFFFF" x="60" y="139.2" width="24" height="26.4"></rect>
            <rect id="Rectangle" fill="#FFFFFF" x="60" y="100.8" width="24" height="26.4"></rect>
            <rect id="Rectangle" fill="#FFFFFF" x="60" y="62.4" width="24" height="26.4"></rect>
            <rect id="Rectangle" fill="#FFFFFF" x="60" y="24" width="24" height="26.4"></rect>
        </g>
        <g id="building" transform="translate(560.000000, 266.000000)">
            <rect id="Rectangle" fill="#465E71" x="0" y="0" width="124" height="234.222222"></rect>
            <rect id="Rectangle" fill="#374859" x="27.5555556" y="159.822222" width="27.5555556" height="30.3111111"></rect>
            <rect id="Rectangle" fill="#374859" x="27.5555556" y="115.733333" width="27.5555556" height="30.3111111"></rect>
            <rect id="Rectangle" fill="#374859" x="27.5555556" y="71.6444444" width="27.5555556" height="30.3111111"></rect>
            <rect id="Rectangle" fill="#374859" x="27.5555556" y="27.5555556" width="27.5555556" height="30.3111111"></rect>
            <rect id="Rectangle" fill="#374859" x="68.8888889" y="159.822222" width="27.5555556" height="30.3111111"></rect>
            <rect id="Rectangle" fill="#374859" x="68.8888889" y="115.733333" width="27.5555556" height="30.3111111"></rect>
            <rect id="Rectangle" fill="#374859" x="68.8888889" y="71.6444444" width="27.5555556" height="30.3111111"></rect>
            <rect id="Rectangle" fill="#374859" x="68.8888889" y="27.5555556" width="27.5555556" height="30.3111111"></rect>
        </g>
        <g id="house" transform="translate(670.000000, 348.000000)">
            <polygon id="Rectangle" fill="#73A0BA" points="0 50.9090909 70 -1.92876018e-13 140 50.9090909 140 152.727273 0 152.727273"></polygon>
            <rect id="Rectangle" fill="#FFFFFF" x="25.4545455" y="76.3636364" width="38.1818182" height="43.2727273"></rect>
            <rect id="Rectangle" fill="#FFFFFF" x="76.3636364" y="76.3636364" width="38.1818182" height="43.2727273"></rect>
        </g>
        <g id="Group" transform="translate(736.000000, 287.000000)" fill="#73BA8E">
            <rect id="Rectangle" x="0" y="0" width="8" height="24"></rect>
            <rect id="Rectangle" x="0" y="32" width="8" height="8"></rect>
        </g>
        <g id="Group" transform="translate(538.000000, 373.000000)" fill="#73BA8E">
            <rect id="Rectangle" x="0" y="0" width="5" height="15"></rect>
            <rect id="Rectangle" x="0" y="20" width="5" height="5"></rect>
        </g>
        <g id="Group" transform="translate(851.000000, 247.000000)" fill="#73BA8E">
            <rect id="Rectangle" x="0" y="0" width="6" height="18"></rect>
            <rect id="Rectangle" x="0" y="24" width="6" height="6"></rect>
        </g>
    </g>
</svg>