<?xml version="1.0" encoding="UTF-8"?>
<svg width="1480px" height="500px" viewBox="0 0 1480 500" version="1.1" xmlns="http://www.w3.org/2000/svg" xmlns:xlink="http://www.w3.org/1999/xlink">
    <!-- Generator: Sketch 60.1 (88133) - https://sketch.com -->
    <title>illustration_hero_comms-ui</title>
    <desc>Created with Sketch.</desc>
    <g id="illustration_hero_comms-ui" stroke="none" stroke-width="1" fill="none" fill-rule="evenodd">
        <g id="body_SOURCE" transform="translate(900.000000, 80.000000)">
            <g id="block">
                <rect id="Rectangle" x="0" y="0" width="280" height="100"></rect>
                <rect id="Rectangle" fill-opacity="0.06" fill="#73A0BA" x="0" y="0" width="280" height="100"></rect>
            </g>
            <g id="block" transform="translate(20.000000, 20.000000)">
                <rect id="Rectangle" x="0" y="0" width="240" height="4"></rect>
                <rect id="Rectangle" fill-opacity="0.3" fill="#293241" x="0" y="0" width="240" height="4"></rect>
            </g>
            <g id="block" transform="translate(20.000000, 34.000000)">
                <rect id="Rectangle" x="0" y="0" width="240" height="4"></rect>
                <rect id="Rectangle" fill-opacity="0.3" fill="#293241" x="0" y="0" width="240" height="4"></rect>
            </g>
            <g id="block" transform="translate(20.000000, 48.000000)">
                <rect id="Rectangle" x="0" y="0" width="240" height="4"></rect>
                <rect id="Rectangle" fill-opacity="0.3" fill="#293241" x="0" y="0" width="240" height="4"></rect>
            </g>
            <g id="block" transform="translate(20.000000, 62.000000)">
                <rect id="Rectangle" x="0" y="0" width="240" height="4"></rect>
                <rect id="Rectangle" fill-opacity="0.3" fill="#293241" x="0" y="0" width="240" height="4"></rect>
            </g>
            <g id="block" transform="translate(20.000000, 76.000000)">
                <rect id="Rectangle" x="0" y="0" width="120" height="4"></rect>
                <rect id="Rectangle" fill-opacity="0.3" fill="#293241" x="0" y="0" width="120" height="4"></rect>
            </g>
        </g>
        <g id="block_100px" transform="translate(600.000000, 140.000000)" fill="#73A0BA" fill-opacity="0.06">
            <rect id="Rectangle" x="0" y="0" width="280" height="100"></rect>
        </g>
        <g id="block_100px" transform="translate(300.000000, 80.000000)" fill="#73A0BA" fill-opacity="0.09">
            <rect id="Rectangle" x="0" y="0" width="280" height="100"></rect>
        </g>
        <g id="block_100px" transform="translate(0.000000, 140.000000)" fill="#73A0BA" fill-opacity="0.03">
            <rect id="Rectangle" x="0" y="0" width="280" height="100"></rect>
        </g>
        <g id="body_SOURCE" transform="translate(0.000000, -40.000000)">
            <g id="block">
                <rect id="Rectangle" x="0" y="0" width="280" height="100"></rect>
                <rect id="Rectangle" fill-opacity="0.03" fill="#73A0BA" x="0" y="0" width="280" height="100"></rect>
            </g>
            <g id="block" transform="translate(20.000000, 48.000000)">
                <rect id="Rectangle" x="0" y="0" width="240" height="4"></rect>
                <rect id="Rectangle" fill-opacity="0.3" fill="#293241" x="0" y="0" width="240" height="4"></rect>
            </g>
            <g id="block" transform="translate(20.000000, 62.000000)">
                <rect id="Rectangle" x="0" y="0" width="240" height="4"></rect>
                <rect id="Rectangle" fill-opacity="0.3" fill="#293241" x="0" y="0" width="240" height="4"></rect>
            </g>
            <g id="block" transform="translate(20.000000, 76.000000)">
                <rect id="Rectangle" x="0" y="0" width="120" height="4"></rect>
                <rect id="Rectangle" fill-opacity="0.3" fill="#293241" x="0" y="0" width="120" height="4"></rect>
            </g>
        </g>
        <g id="block_100px" transform="translate(1200.000000, 200.000000)" fill="#73A0BA" fill-opacity="0.06">
            <rect id="Rectangle" x="0" y="0" width="280" height="100"></rect>
        </g>
        <g id="block_100px" transform="translate(1200.000000, 20.000000)" fill="#73A0BA" fill-opacity="0.03">
            <rect id="Rectangle" x="0" y="0" width="280" height="100"></rect>
        </g>
        <g id="block_100px" transform="translate(900.000000, 380.000000)" fill="#73A0BA" fill-opacity="0.06">
            <rect id="Rectangle" x="0" y="0" width="280" height="100"></rect>
        </g>
        <g id="block_100px" transform="translate(300.000000, 440.000000)" fill="#73A0BA" fill-opacity="0.09">
            <rect id="Rectangle" x="0" y="0" width="280" height="100"></rect>
        </g>
        <g id="block_100px" transform="translate(300.000000, 200.000000)" fill="#73A0BA" fill-opacity="0.06">
            <rect id="Rectangle" x="0" y="0" width="280" height="100"></rect>
        </g>
        <g id="block_100px" opacity="0" transform="translate(0.000000, 320.000000)" fill="#73A0BA" fill-opacity="0.03">
            <rect id="Rectangle" x="0" y="0" width="280" height="100"></rect>
        </g>
        <g id="block_100px" transform="translate(600.000000, -40.000000)" fill="#73A0BA" fill-opacity="0.06">
            <rect id="Rectangle" x="0" y="0" width="280" height="100"></rect>
        </g>
        <g id="block_100px" transform="translate(1200.000000, 440.000000)" fill="#73A0BA" fill-opacity="0.06">
            <rect id="Rectangle" x="0" y="0" width="280" height="100"></rect>
        </g>
        <g id="block_40px" transform="translate(900.000000, 260.000000)" fill="#73A0BA" fill-opacity="0.03">
            <rect id="Rectangle" x="0" y="0" width="280" height="40"></rect>
        </g>
        <g id="header_SOURCE" transform="translate(1200.000000, 320.000000)">
            <g id="block" fill="#73A0BA" fill-opacity="0.03">
                <rect id="Rectangle" x="0" y="0" width="280" height="40"></rect>
            </g>
            <g id="block" transform="translate(20.000000, 15.000000)" fill="#293241" opacity="0.7">
                <rect id="Rectangle" x="0" y="0" width="115" height="10"></rect>
            </g>
        </g>
        <g id="block_40px" opacity="0" transform="translate(1200.000000, 380.000000)" fill="#73A0BA" fill-opacity="0.03">
            <rect id="Rectangle" x="0" y="0" width="280" height="40"></rect>
        </g>
        <g id="block_40px" opacity="0" transform="translate(900.000000, 320.000000)" fill="#73A0BA" fill-opacity="0.1">
            <rect id="Rectangle" x="0" y="0" width="280" height="40"></rect>
        </g>
        <g id="to-field_SOURCE" transform="translate(300.000000, 380.000000)">
            <g id="block" fill="#73A0BA" fill-opacity="0.09">
                <rect id="Rectangle" x="0" y="0" width="280" height="40"></rect>
            </g>
            <g id="pill" transform="translate(20.000000, 15.000000)" fill="#293241" opacity="0.6">
                <rect id="Rectangle" x="0" y="0" width="52.5" height="10" rx="5"></rect>
            </g>
            <g id="pill" transform="translate(82.500000, 15.000000)" fill="#293241" opacity="0.6">
                <rect id="Rectangle" x="0" y="0" width="52.5" height="10" rx="5"></rect>
            </g>
            <g id="pill" transform="translate(145.000000, 15.000000)" fill="#293241" opacity="0.6">
                <rect id="Rectangle" x="0" y="0" width="52.5" height="10" rx="5"></rect>
            </g>
        </g>
        <g id="block_40px" transform="translate(0.000000, 440.000000)" fill="#73A0BA" fill-opacity="0.06">
            <rect id="Rectangle" x="0" y="0" width="280" height="40"></rect>
        </g>
        <g id="block_40px" transform="translate(300.000000, 320.000000)" fill="#73A0BA" fill-opacity="0.03">
            <rect id="Rectangle" x="0" y="0" width="280" height="40"></rect>
        </g>
        <g id="block_40px" transform="translate(0.000000, 260.000000)" fill="#73A0BA" fill-opacity="0.06">
            <rect id="Rectangle" x="0" y="0" width="280" height="40"></rect>
        </g>
        <g id="block_40px" opacity="0" transform="translate(0.000000, 80.000000)" fill="#73A0BA" fill-opacity="0.06">
            <rect id="Rectangle" x="0" y="0" width="280" height="40"></rect>
        </g>
        <g id="footer_SOURCE" transform="translate(300.000000, 20.000000)">
            <g id="block">
                <rect id="Rectangle" x="0" y="0" width="280" height="40"></rect>
                <rect id="Rectangle" fill-opacity="0.09" fill="#73A0BA" x="0" y="0" width="280" height="40"></rect>
            </g>
            <g id="block" transform="translate(20.000000, 10.000000)">
                <rect id="Rectangle" x="0" y="0" width="52.5" height="20" rx="3"></rect>
                <rect id="Rectangle" fill-opacity="0.3" fill="#293241" x="0" y="0" width="52.5" height="20" rx="3"></rect>
            </g>
            <g id="block" transform="translate(82.500000, 15.000000)">
                <rect id="Rectangle" x="0" y="0" width="52.5" height="10"></rect>
                <rect id="Rectangle" fill-opacity="0.3" fill="#293241" x="0" y="0" width="52.5" height="10"></rect>
            </g>
        </g>
        <g id="block_40px" transform="translate(900.000000, 200.000000)" fill="#73A0BA" fill-opacity="0.09">
            <rect id="Rectangle" x="0" y="0" width="280" height="40"></rect>
        </g>
        <g id="footer_SOURCE" transform="translate(900.000000, 260.000000)">
            <g id="block">
                <rect id="Rectangle" x="0" y="0" width="280" height="40"></rect>
                <rect id="Rectangle" fill-opacity="0.09" fill="#73A0BA" x="0" y="0" width="280" height="40"></rect>
            </g>
            <g id="block" transform="translate(20.000000, 10.000000)">
                <rect id="Rectangle" x="0" y="0" width="52.5" height="20" rx="3"></rect>
                <rect id="Rectangle" fill-opacity="0.3" fill="#293241" x="0" y="0" width="52.5" height="20" rx="3"></rect>
            </g>
            <g id="block" transform="translate(82.500000, 15.000000)">
                <rect id="Rectangle" x="0" y="0" width="52.5" height="10"></rect>
                <rect id="Rectangle" fill-opacity="0.3" fill="#293241" x="0" y="0" width="52.5" height="10"></rect>
            </g>
        </g>
        <g id="block_40px" transform="translate(600.000000, 80.000000)" fill="#73A0BA" fill-opacity="0.03">
            <rect id="Rectangle" x="0" y="0" width="280" height="40"></rect>
        </g>
        <g id="block_40px" opacity="0" transform="translate(1200.000000, 140.000000)" fill="#73A0BA" fill-opacity="0.03">
            <rect id="Rectangle" x="0" y="0" width="280" height="40"></rect>
        </g>
        <g id="block_40px" transform="translate(900.000000, 20.000000)" fill="#73A0BA" fill-opacity="0.03">
            <rect id="Rectangle" x="0" y="0" width="280" height="40"></rect>
        </g>
        <g id="_SOURCE" transform="translate(600.000000, 260.000000)">
            <g id="footer_SOURCE" transform="translate(0.000000, 180.000000)">
                <g id="block">
                    <rect id="Rectangle" fill="#FFFFFF" x="0" y="0" width="280" height="40"></rect>
                    <rect id="Rectangle" fill-opacity="0.2" fill="#73A0BA" x="0" y="0" width="280" height="40"></rect>
                </g>
                <g id="block" transform="translate(20.000000, 10.000000)">
                    <rect id="Rectangle" fill="#FFFFFF" x="0" y="0" width="52.5" height="20" rx="3"></rect>
                    <rect id="Rectangle" fill="#73BA8E" x="0" y="0" width="52.5" height="20" rx="3"></rect>
                </g>
                <g id="block" transform="translate(82.500000, 15.000000)">
                    <rect id="Rectangle" fill="#FFFFFF" x="0" y="0" width="52.5" height="10"></rect>
                    <rect id="Rectangle" fill-opacity="0.4" fill="#73A0BA" x="0" y="0" width="52.5" height="10"></rect>
                </g>
            </g>
            <g id="body_SOURCE" transform="translate(0.000000, 80.000000)">
                <g id="block">
                    <rect id="Rectangle" fill="#FFFFFF" x="0" y="0" width="280" height="100"></rect>
                    <rect id="Rectangle" fill-opacity="0" fill="#73A0BA" x="0" y="0" width="280" height="100"></rect>
                </g>
                <g id="block" transform="translate(20.000000, 20.000000)">
                    <rect id="Rectangle" fill="#FFFFFF" x="0" y="0" width="240" height="4"></rect>
                    <rect id="Rectangle" fill-opacity="0.3" fill="#73A0BA" x="0" y="0" width="240" height="4"></rect>
                </g>
                <g id="block" transform="translate(20.000000, 34.000000)">
                    <rect id="Rectangle" fill="#FFFFFF" x="0" y="0" width="240" height="4"></rect>
                    <rect id="Rectangle" fill-opacity="0.3" fill="#73A0BA" x="0" y="0" width="240" height="4"></rect>
                </g>
                <g id="block" transform="translate(20.000000, 48.000000)">
                    <rect id="Rectangle" fill="#FFFFFF" x="0" y="0" width="240" height="4"></rect>
                    <rect id="Rectangle" fill-opacity="0.3" fill="#73A0BA" x="0" y="0" width="240" height="4"></rect>
                </g>
                <g id="block" transform="translate(20.000000, 62.000000)">
                    <rect id="Rectangle" fill="#FFFFFF" x="0" y="0" width="240" height="4"></rect>
                    <rect id="Rectangle" fill-opacity="0.3" fill="#73A0BA" x="0" y="0" width="240" height="4"></rect>
                </g>
                <g id="block" transform="translate(20.000000, 76.000000)">
                    <rect id="Rectangle" fill="#FFFFFF" x="0" y="0" width="120" height="4"></rect>
                    <rect id="Rectangle" fill-opacity="0.3" fill="#73A0BA" x="0" y="0" width="120" height="4"></rect>
                </g>
            </g>
            <g id="to-field_SOURCE" transform="translate(0.000000, 40.000000)">
                <g id="block">
                    <rect id="Rectangle" fill="#FFFFFF" x="0" y="0" width="280" height="40"></rect>
                    <rect id="Rectangle" fill-opacity="0.2" fill="#73A0BA" x="0" y="0" width="280" height="40"></rect>
                </g>
                <g id="pill" transform="translate(20.000000, 15.000000)">
                    <rect id="Rectangle" fill="#FFFFFF" x="0" y="0" width="52.5" height="10" rx="5"></rect>
                    <rect id="Rectangle" fill-opacity="0.6" fill="#73A0BA" x="0" y="0" width="52.5" height="10" rx="5"></rect>
                </g>
                <g id="pill" transform="translate(82.500000, 15.000000)">
                    <rect id="Rectangle" fill="#FFFFFF" x="0" y="0" width="52.5" height="10" rx="5"></rect>
                    <rect id="Rectangle" fill-opacity="0.6" fill="#73A0BA" x="0" y="0" width="52.5" height="10" rx="5"></rect>
                </g>
                <g id="pill" transform="translate(145.000000, 15.000000)">
                    <rect id="Rectangle" fill="#FFFFFF" x="0" y="0" width="52.5" height="10" rx="5"></rect>
                    <rect id="Rectangle" fill-opacity="0.6" fill="#73A0BA" x="0" y="0" width="52.5" height="10" rx="5"></rect>
                </g>
            </g>
            <g id="header_SOURCE">
                <g id="block">
                    <rect id="Rectangle" fill="#FFFFFF" x="0" y="0" width="280" height="40"></rect>
                    <rect id="Rectangle" fill="#73A0BA" x="0" y="0" width="280" height="40"></rect>
                </g>
                <g id="block" transform="translate(20.000000, 15.000000)">
                    <rect id="Rectangle" fill="#FFFFFF" x="0" y="0" width="115" height="10"></rect>
                    <rect id="Rectangle" fill-opacity="0" fill="#73A0BA" x="0" y="0" width="115" height="10"></rect>
                </g>
            </g>
        </g>
    </g>
</svg>